<svg width="28" height="28" viewBox="0 0 28 28" fill="none" xmlns="http://www.w3.org/2000/svg">
<path d="M24.2072 14L25.4952 11.774C25.65 11.5062 25.6921 11.1879 25.6122 10.889C25.5324 10.5902 25.3371 10.3353 25.0693 10.1804L22.841 8.89238V6.32571C22.841 6.01629 22.7181 5.71955 22.4993 5.50076C22.2805 5.28196 21.9837 5.15905 21.6743 5.15905H19.1088L17.822 2.93188C17.6666 2.66462 17.4122 2.4693 17.1138 2.38821C16.9658 2.3481 16.8114 2.33775 16.6594 2.35778C16.5074 2.37781 16.3609 2.42781 16.2283 2.50488L14 3.79288L11.7717 2.50371C11.5037 2.34901 11.1853 2.30709 10.8864 2.38716C10.5875 2.46724 10.3327 2.66276 10.178 2.93071L8.88999 5.15905H6.32449C6.01507 5.15905 5.71833 5.28196 5.49953 5.50076C5.28074 5.71955 5.15783 6.01629 5.15783 6.32571V8.89121L2.92949 10.1792C2.79653 10.2557 2.67999 10.3577 2.58657 10.4794C2.49315 10.601 2.42468 10.7399 2.38511 10.8881C2.34554 11.0363 2.33565 11.1909 2.35599 11.3429C2.37633 11.495 2.42652 11.6415 2.50366 11.774L3.79166 14L2.50366 16.226C2.34965 16.4941 2.30786 16.8122 2.38741 17.111C2.46696 17.4097 2.6614 17.6649 2.92833 17.8209L5.15666 19.1089V21.6744C5.15666 21.9838 5.27957 22.2805 5.49837 22.4993C5.71716 22.7181 6.01391 22.841 6.32333 22.841H8.88999L10.178 25.0694C10.2813 25.2459 10.4288 25.3926 10.6059 25.4949C10.783 25.5971 10.9838 25.6515 11.1883 25.6527C11.3913 25.6527 11.5932 25.599 11.7728 25.4952L13.9988 24.2072L16.2272 25.4952C16.495 25.6497 16.8133 25.6916 17.112 25.6118C17.4108 25.532 17.6657 25.3369 17.8208 25.0694L19.1077 22.841H21.6732C21.9826 22.841 22.2793 22.7181 22.4981 22.4993C22.7169 22.2805 22.8398 21.9838 22.8398 21.6744V19.1089L25.0682 17.8209C25.2009 17.7442 25.3172 17.6421 25.4105 17.5204C25.5037 17.3987 25.5721 17.2598 25.6116 17.1117C25.6511 16.9636 25.6611 16.8091 25.6409 16.6572C25.6208 16.5052 25.5708 16.3587 25.494 16.226L24.2072 14ZM11.0822 8.15505C11.5464 8.1552 11.9916 8.33979 12.3198 8.66819C12.648 8.9966 12.8323 9.44193 12.8322 9.90621C12.832 10.3705 12.6474 10.8157 12.319 11.1439C11.9906 11.4721 11.5453 11.6564 11.081 11.6562C10.6167 11.6561 10.1715 11.4715 9.84331 11.1431C9.51512 10.8147 9.33084 10.3693 9.33099 9.90505C9.33115 9.44076 9.51573 8.99556 9.84414 8.66737C10.1725 8.33918 10.6179 8.15489 11.0822 8.15505ZM11.4322 19.355L9.56549 17.9562L16.5655 8.62288L18.4322 10.0217L11.4322 19.355ZM16.9155 19.8217C16.6856 19.8216 16.458 19.7763 16.2456 19.6882C16.0333 19.6002 15.8403 19.4712 15.6778 19.3086C15.5153 19.146 15.3864 18.9529 15.2985 18.7405C15.2106 18.5281 15.1654 18.3004 15.1655 18.0705C15.1656 17.8407 15.2109 17.613 15.299 17.4007C15.387 17.1883 15.516 16.9954 15.6786 16.8329C15.8412 16.6704 16.0343 16.5415 16.2467 16.4536C16.4591 16.3657 16.6868 16.3205 16.9167 16.3205C17.3809 16.3207 17.8261 16.5053 18.1543 16.8337C18.4825 17.1621 18.6668 17.6074 18.6667 18.0717C18.6665 18.536 18.4819 18.9812 18.1535 19.3094C17.8251 19.6376 17.3798 19.8219 16.9155 19.8217Z" fill="#A2937C"/>
</svg>
